<?xml version="1.0" standalone="no"?><!DOCTYPE svg PUBLIC "-//W3C//DTD SVG 1.1//EN" "http://www.w3.org/Graphics/SVG/1.1/DTD/svg11.dtd"><svg t="1591784486462" class="icon" viewBox="0 0 1024 1024" version="1.1" xmlns="http://www.w3.org/2000/svg" p-id="6200" width="128" height="128" xmlns:xlink="http://www.w3.org/1999/xlink"><defs><style type="text/css"></style></defs><path d="M760.8 839.7H263c-47.9 0-81.1-38.5-74-83.7l54-344.6c4.8-30.1 38.8-54.1 76-54.1h385.9c37.1 0 71.3 23.8 76 54.1l54.1 344.6c6.9 45.2-26.3 83.7-74.2 83.7z" fill="#F3F5CD" p-id="6201"></path><path d="M386.1 428.1v20.6c1.9-1.8 4.1-3.2 6.4-4.1 2.3-0.9 4.8-1.4 7.3-1.4 4 0 7.4 1 10.2 3.1 2.8 2 4.5 4.4 5.1 7 0.6 2.6 0.9 7.5 0.9 14.5v51.7h-22.8v-52.8c0-4.3-0.2-7.2-0.7-8.4-0.5-1.2-1.4-1.8-3-1.8-1.4 0-2.4 0.7-2.8 1.9-0.5 1.2-0.7 3.9-0.7 7.6v53.5h-22.8V428.1h22.9zM476.1 470.9v18.4c0 6.7-0.3 11.7-1 14.9-0.7 3.2-2.2 6.1-4.3 8.9-2.3 2.7-5.1 4.8-8.5 6-3.5 1.2-7.5 1.9-12 1.9-5 0-9.3-0.6-12.8-1.7s-6.2-2.8-8.2-5c-1.9-2.2-3.3-5-4.2-8.2-0.9-3.2-1.2-7.9-1.2-14.3v-19.2c0-6.9 0.8-12.4 2.3-16.4s4.2-7 8.2-9.4c4-2.4 9-3.5 15-3.5 5.1 0 9.5 0.8 13.2 2.3s6.5 3.5 8.5 6 3.4 5 4.1 7.6c0.6 2.5 0.9 6.4 0.9 11.7z m-22.8-5.6c0-3.9-0.2-6.2-0.6-7.3-0.5-1-1.2-1.5-2.6-1.5s-2.3 0.5-2.7 1.5-0.7 3.4-0.7 7.3V499.1c0 3.5 0.2 5.9 0.7 6.9 0.5 1 1.4 1.6 2.6 1.6 1.4 0 2.3-0.5 2.7-1.5s0.7-3.1 0.7-6.4v-34.5h-0.1zM507.5 444.6l-0.3 6.6c2-2.7 4.3-4.7 6.7-6 2.5-1.4 5.1-2 8.1-2 3.5 0 6.6 0.9 9.2 2.8 2.6 1.9 4.2 4.1 4.9 6.6 0.7 2.5 0.9 6.7 0.9 12.6v31.6c0 6.8-0.5 11.7-1.2 14.5s-2.5 5.2-5 6.9c-2.5 1.7-5.6 2.6-9.1 2.6-2.8 0-5.5-0.7-7.8-1.9-2.4-1.4-4.7-3.3-6.6-5.9v17.4h-22.8v-85.7h23z m6.4 21.8c0-4.7-0.1-7.5-0.5-8.4-0.3-0.9-1.2-1.5-2.8-1.5-1.5 0-2.5 0.6-3 1.7s-0.7 3.9-0.7 8.2v31.1c0 4.5 0.2 7.4 0.7 8.5 0.5 1.1 1.5 1.7 3 1.7s2.4-0.6 2.7-1.6c0.3-1 0.6-3.5 0.6-7.5v-32.2zM568.1 444.6l-0.3 6.6c2-2.7 4.3-4.7 6.7-6 2.5-1.4 5.1-2 8.1-2 3.5 0 6.6 0.9 9.2 2.8s4.2 4.1 4.9 6.6c0.7 2.5 0.9 6.7 0.9 12.6v31.6c0 6.8-0.5 11.7-1.2 14.5s-2.5 5.2-5 6.9-5.6 2.6-9.1 2.6c-2.8 0-5.5-0.7-7.8-1.9-2.4-1.4-4.7-3.3-6.6-5.9v17.4h-22.8v-85.7h23z m6.6 21.8c0-4.7-0.1-7.5-0.5-8.4-0.3-1-1.2-1.5-2.8-1.5-1.5 0-2.5 0.6-3 1.7s-0.7 3.9-0.7 8.2v31.1c0 4.5 0.2 7.4 0.7 8.5 0.5 1.1 1.5 1.7 3 1.7s2.4-0.6 2.7-1.6c0.3-1 0.6-3.5 0.6-7.5v-32.2zM629.1 428.1v11.9h-23.5V428.1h23.5z m0 16.5v75.1h-23.5v-75.1h23.5zM661.1 444.6l-0.3 6.9c1.7-2.7 3.6-4.8 6.1-6.2 2.4-1.4 5.1-2 8.3-2 4 0 7.2 0.9 9.7 2.7s4.1 4.2 4.8 6.9c0.7 2.8 1 7.5 1 14.1v52.6h-22.8v-51.9c0-5.1-0.1-8.3-0.5-9.4-0.3-1.1-1.2-1.7-2.8-1.7s-2.6 0.7-3.1 1.9-0.6 4.8-0.6 10.4v50.6h-22.8v-75.1h23.1v0.2zM750.8 444.6v57.8c0 7.8-0.2 12.8-0.6 15.1-0.3 2.3-1.6 4.7-3.9 7.3-2.2 2.5-5.2 4.4-9.1 5.8-3.9 1.4-8.9 2-14.8 2-7.3 0-13.1-1.2-17.5-3.7s-6.7-7.3-6.8-14.5h22.1c0 3.3 1.2 5 3.6 5 1.7 0 2.8-0.5 3.4-1.5s0.8-3.2 0.8-6.4v-5.7c-1.9 1.8-4 3.1-6.2 4-2.2 0.9-4.4 1.4-6.8 1.4-4.1 0-7.5-0.8-10.1-2.5-2.6-1.7-4.4-3.9-5.5-6.5s-1.5-6.5-1.5-11.5v-27.3c0-7.2 1.2-12.3 3.9-15.3 2.6-3.2 6.5-4.7 11.7-4.7 2.8 0 5.5 0.6 7.8 1.8 2.4 1.1 4.4 3 6.4 5.2l1.6-5.7h21.3v-0.1zM728 464.5c0-3.4-0.2-5.6-0.6-6.6-0.3-0.9-1.2-1.4-2.6-1.4s-2.3 0.6-2.8 1.6c-0.6 1-0.8 3.2-0.8 6.4v25.2c0 3.4 0.2 5.6 0.6 6.5 0.3 0.9 1.2 1.5 2.6 1.5 1.5 0 2.5-0.6 3-1.8 0.5-1.2 0.7-4 0.7-8.2l-0.1-23.2z" fill="#592900" p-id="6202"></path><path d="M668.9 360.4h-14.4c0-70.1-54.4-176-136.5-176-78.7 0-148.8 98.5-148.8 176h-14.4c0-85.7 75.3-190.6 163.2-190.6 40.5 0 79.3 23.3 109.1 65.4 26.2 37.2 41.8 84 41.8 125.2z" fill="#592900" p-id="6203"></path><path d="M637.6 360.4h-14.4c0-40.8-10-84.7-26.7-117.7-13.5-26.7-37.7-58.4-76-58.4-48.7 0-116.7 67-116.7 176h-14.5c0-79.6 50-190.6 131.2-190.6 79.9 0.3 117.1 114 117.1 190.7z" fill="#592900" p-id="6204"></path><path d="M582.9 763.5H188l16.4-77.2h378.5z" fill="#F39800" p-id="6205"></path><path d="M587.7 768.2H182l18.4-86.9h387.3v86.9z m-393.8-9.6h384.2v-67.6H208.2l-14.3 67.6z" fill="#592900" p-id="6206"></path><path d="M708.6 719.4m-157.1 0a157.1 157.1 0 1 0 314.2 0 157.1 157.1 0 1 0-314.2 0Z" fill="#FFE100" p-id="6207"></path><path d="M669.5 870.9s12.9-31.8 75.1-59.6 101.5-16.2 101.5-16.2-4.2 34.1-74.4 65.9c-70 31.7-102.2 9.9-102.2 9.9z" fill="#F04726" p-id="6208"></path><path d="M773.7 864.4c-0.1 0-0.2 0.1-0.3 0.1-71.3 32.4-104.8 10.6-106.2 9.7l-2.7-1.8 1.2-3.1c0.6-1.4 14.3-33.7 77.1-61.9 62.8-28.2 102.7-16.9 104.4-16.4l3.3 1-0.5 3.4c0 1.6-5.3 36.8-76.3 69zM675 869.1c3.6 1.6 10.4 3.9 20.4 4.7 14.8 1.1 39.6-0.8 74.6-16.6 0.1 0 0.2-0.1 0.2-0.1 53.4-24.3 67.2-49.7 70.6-59.1-11.2-1.9-46-5.1-94.8 16.8-0.5 0.2-0.9 0.5-1.5 0.7C697.3 837.1 680 860.7 675 869.1z" fill="#592900" p-id="6209"></path><path d="M674.5 908.8c-2.3 1-5.1 0.2-6.5-1.9-1.5-2.4-0.8-5.6 1.6-7.2l33.2-21c2.4-1.5 5.6-0.8 7.2 1.6 1.5 2.4 0.8 5.6-1.6 7.2l-33.2 21c-0.2 0.1-0.5 0.2-0.7 0.3z" fill="#592900" p-id="6210"></path><path d="M699.5 937.2c-0.9 0.5-1.9 0.6-3 0.3-2.8-0.5-4.8-3.2-4.2-5.9l8.3-49.3c0.5-2.8 3.2-4.8 5.9-4.2 2.8 0.5 4.8 3.2 4.2 5.9l-8.3 49.3c-0.3 1.8-1.4 3.1-2.9 3.9z" fill="#592900" p-id="6211"></path><path d="M719.9 910.8c-2.5 1.1-5.5 0.1-6.7-2.3L701 885.6c-1.4-2.5-0.3-5.7 2.2-7 2.6-1.4 5.7-0.3 7 2.2l12.2 22.9c1.4 2.5 0.3 5.7-2.2 7-0.2 0-0.3 0.1-0.3 0.1zM868.4 821.6c-0.2 0.1-0.5 0.2-0.7 0.2l-37.7 10.8c-2.7 0.8-5.6-0.8-6.4-3.5-0.8-2.7 0.8-5.7 3.5-6.4l37.7-10.8c2.7-0.8 5.6 0.8 6.4 3.5 0.7 2.6-0.6 5.2-2.8 6.2z" fill="#592900" p-id="6212"></path><path d="M872.9 859.1c-1.5 0.7-3.4 0.7-4.9-0.3l-42.4-26.7c-2.4-1.5-3.2-4.8-1.6-7.2 1.5-2.4 4.8-3.2 7.2-1.6l42.4 26.7c2.4 1.5 3.2 4.8 1.6 7.2-0.7 0.8-1.4 1.4-2.3 1.9z" fill="#592900" p-id="6213"></path><path d="M839.5 856.7c-0.1 0-0.2 0.1-0.3 0.1-2.7 1-5.7-0.3-6.7-3.1l-9-24.3c-1-2.7 0.3-5.7 3.1-6.7 2.7-1 5.7 0.3 6.7 3.1l9 24.3c1 2.8-0.3 5.5-2.8 6.6z" fill="#592900" p-id="6214"></path><path d="M775.8 866.9c-0.2 0.1-0.6 0.2-0.8 0.3-39.5 17.7-83.6 19-124.1 3.5-40.4-15.4-72.6-45.7-90.3-85.2s-19-83.6-3.5-124.1c15.4-40.5 45.7-72.6 85.2-90.3 81.7-36.6 177.7 0 214.4 81.7 17.7 39.5 19 83.6 3.5 124.1-15.3 40.4-45.3 72.3-84.4 90zM645.7 581.2c-36.7 16.7-64.6 46.6-79 84.2-14.4 37.9-13.3 79.2 3.3 116.2s46.6 65.3 84.5 79.8c37.9 14.4 79.2 13.3 116.2-3.3 36.9-16.6 65.3-46.6 79.8-84.5 14.4-37.9 13.3-79.2-3.3-116.2l4.8-2.2-4.8 2.2c-34.3-76.4-124.2-110.7-200.7-76.4-0.3-0.1-0.5 0-0.8 0.2z" fill="#592900" p-id="6215"></path><path d="M652.3 611c-0.5 0.2-1 0.3-1.5 0.5-4.8 1-8.2-3.2-9.2-4.4-0.2-0.3-0.8-0.8-1.4-1.5-1.9-2.2-3.5-3.9-4.4-5.3-7.2-8.3-13.1-7.4-22.8-5.8-2.3 0.3-4.5 0.8-6.9 1-7.7 0.9-15.6-3-20-9.8-4.5-7.2-4.4-16.2 0.3-24.2 1.5-2.8 6.8-11.2 17.8-11h0.5c-8.3-11.9-15.3-24.5-16.5-35.4-2.5-23.4 6.8-41.1 25.1-47.4 9.4-3.2 15.6-2.7 23.1-0.9 11.7 3 19.6 14.3 20.2 29 4.7-8.1 8.6-12.5 13.1-14.5 5.3-2.5 8.4-2.5 11.4-2.2h0.2c11.1 0.9 30.3 16.5 30.5 30.7 0 2.5-0.5 5-1.6 7.2-3.3 6.6-9.8 12.8-16.6 19.5-7.5 7.3-15.2 14.9-19.9 23.4-3.5 6.6-9.1 23.2-12.4 33-2.3 6.9-3 8.6-3.4 9.7-0.1 0.2-0.1 0.5-0.2 0.8-0.9 2.1-2 6-5.4 7.6z m-52.2-49.4c-2.6 1.2-4.1 3.5-4.7 4.8-0.1 0.1-0.1 0.2-0.2 0.3-3.9 6.4-2 11.1-0.6 13.4 2.3 3.5 6.4 5.6 10.1 5.1 2.3-0.2 4.4-0.6 6.5-0.9 10.7-1.8 21.7-3.6 32.6 9.5 0.2 0.2 0.3 0.5 0.5 0.7 0.5 0.7 2.6 3.1 3.5 4.1 0.1 0.1 0.1 0.2 0.2 0.2 0.1-0.3 0.3-0.7 0.5-1 0.3-0.9 1.6-4.5 2.7-8.1 3.6-10.9 9.1-27.4 13.1-34.6 5.3-10 14.1-18.4 21.7-25.9 6.2-6 12-11.7 14.5-16.7 0.3-0.8 0.6-1.6 0.6-2.5-0.1-8.5-15.1-20-21-20.6h-0.3c-1.6-0.1-2.8-0.2-6 1.2-5.1 2.4-11.5 15.8-13.5 20.1-5.6 11.7-6 36.1-5.7 45v0.6c0 2.3-1.5 4.3-3.7 5-2.3 0.7-4.7-0.3-5.9-2.3 0-0.1-0.2-0.3-0.2-0.5-0.1-0.1-0.1-0.2-0.2-0.5-4.8-9.4-4.1-20.4-3.6-26.3 0-0.7 0.1-1.2 0.1-1.8 0.2-3.6 1.2-9.2 2.4-15 1.4-6.9 2.8-14.6 2.6-18.5-0.5-12.2-7-18.2-12.5-19.5-6-1.5-10.1-1.8-17.1 0.6-19.2 6.6-19.1 27.7-18.2 36.5 1.6 15.2 20.3 38.5 26.5 46.2 1.7 2.2 1.5 5.2-0.6 7s-5.1 1.8-7 0c-1.8-1.7-7.8-6.1-13.3-6.4-1.5 0-2.8 0.3-3.8 0.8z" fill="#592900" p-id="6216"></path><path d="M680.2 484.5c-11.5-1-16.8 7.2-25 24.3-7.5 15.6-6.1 47.7-6.1 47.7-5-8.5-3.6-18.4-3.2-26.1 0.5-7.7 3.4-14.9 4.8-27.9 1.8-16.9-6.7-27.5-16.4-30-28.5-7.2-43.9 18.6-41.5 42.2 1.6 15.3 17.1 35.9 27.5 48.8-5.2-4.3-19.2-13.7-28.4-1.7-11.6 15.2 0.7 30.1 13.1 28.6 13.4-1.6 23.5-6.4 34.5 6.8 0.9 1.6 4.5 5.5 5.6 6.5 5.6 5.9 5.8 0.5 7.6-3.4 1.4-2.8 6.7-25.4 15.9-42.9s30.2-30.4 36.3-42.7c6.1-12.2-15.2-29.5-24.7-30.2z" fill="#F04726" p-id="6217"></path><path d="M668.6 557.5c9.2-17.5 30.2-30.4 36.3-42.7s-15.2-29.5-24.6-30.4c-3.4-0.3-6.2 0.2-8.7 1.5 5.6 0.1 20.6 2 20.1 18.6-0.3 13.7-11 26.3-19.9 38.6-7.3 10.1-18.4 45.9-19.2 57.5 0.1-0.1 0.1-0.2 0.2-0.3 2.1-2.2 6.6-25.3 15.8-42.8zM639.1 480.4c6.7 7.9 1.5 26.2 0.6 34.1-0.9 7.9-1.2 26.8 9.3 41.9-5-8.5-3.6-18.4-3.2-26.1 0.5-7.7 3.4-14.9 4.8-27.9 1.8-16.9-6.7-27.5-16.4-30-7-1.8-13.4-1.6-18.7 0.2 6.5-0.6 17-0.1 23.6 7.8zM590 565s7.4-6.1 14.3-5.3c6.7 0.8 16 4 16 4s-7.9-7.5-16.8-7.7c-9.8-0.5-13.5 9-13.5 9z" fill="#912527" p-id="6218"></path><path d="M606.8 585.9c-0.1 0.1-0.3 0.1-0.5 0.1-9.8 1.9-15.1-6.6-16.5-11.4-0.3-1 0.3-2.2 1.4-2.5 1-0.3 2.2 0.3 2.5 1.4 0.1 0.5 3.2 10.3 11.8 8.6 1.1-0.2 2.2 0.5 2.4 1.6 0.3 0.8-0.2 1.8-1.1 2.2z" fill="#FFFFFF" p-id="6219"></path><path d="M602.6 499.4s-7.5 19 6.9 39.5" fill="#F04726" p-id="6220"></path><path d="M610.3 540.9c-0.9 0.3-1.9 0.1-2.5-0.7-14.9-21.2-7.5-40.7-7.2-41.5 0.5-1 1.6-1.6 2.6-1.1s1.6 1.6 1.1 2.6c-0.3 0.7-6.8 18.2 6.7 37.6 0.7 0.9 0.5 2.2-0.5 2.8 0.1 0.2 0 0.2-0.2 0.3z" fill="#FFFFFF" p-id="6221"></path><path d="M607.5 492.2m-2.7 0a2.7 2.7 0 1 0 5.4 0 2.7 2.7 0 1 0-5.4 0Z" fill="#FFFFFF" p-id="6222"></path><path d="M698.2 736.6s22 33.5 32.4 28.8c8.7-3.9-1-42.8-1-42.8l-31.4 14z" fill="#F29019" p-id="6223"></path><path d="M731.1 766.3c-10.8 4.8-31.3-25.7-33.6-29.2l-0.7-0.9 33.5-14.9 0.2 1.1c1 4.2 9.6 39.8 0.6 43.9z m-31.4-29.3c6.5 9.7 22.9 30.9 30.5 27.5 5.7-2.6 2.3-25.7-1.2-40.5l-29.3 13z" fill="#592900" p-id="6224"></path><path d="M731.5 767.3c-11.1 5-31.9-25.9-34.3-29.4l-1-1.5 34.6-15.4 0.5 1.8c1.7 6.7 9.5 40.2 0.2 44.5z m-30.8-29.6c8.5 12.5 23.1 29.6 29.4 26.8 5-2.3 2.3-23.7-1.5-39.2l-27.9 12.4z" fill="#592900" p-id="6225"></path><path d="M700.7 737.6s19.1 20.9 25.9 17.9c5.3-2.3 3.1-25 2.3-30-1-6.2-30.8 6.6-28.2 12.1z" fill="#471313" p-id="6226"></path><path d="M713.5 750.2s9.3 6.9 12.4 5.3c3-1.5 3.7-11.4 3.7-11.4s-3.4-1.4-5.2-0.9c-1.8 0.5-3.2 2.6-3.2 2.6s-2.7-0.3-4.3 0.7c-2.5 1.6-3.4 3.7-3.4 3.7z" fill="#F04726" p-id="6227"></path><path d="M726.9 756.5c-10 4.5-23.4-13.5-24.9-15.6-0.5-0.7-0.3-1.7 0.3-2.2 0.7-0.5 1.7-0.3 2.2 0.3 3.6 5.1 14.6 17.6 21.1 14.5 4.5-2 3.7-16.4 2.3-25-0.1-0.8 0.5-1.6 1.2-1.8 0.8-0.1 1.6 0.5 1.8 1.2 0.5 2.9 4.1 24.9-4 28.6z" fill="#592900" p-id="6228"></path><path d="M697.1 734.7c-0.2 3.3 3 5.8 6.1 4.8 3.5-1.1 7.4-5.1 12.2-7.3 4.4-2 9.2-1.8 12.7-3.5 3.1-1.5 3.6-5.6 1.1-7.8-4.9-4.3-12-6.8-21-2.8-7.5 3.4-10.6 10.3-11.1 16.6z" fill="#F29019" p-id="6229"></path><path d="M728.7 730.2c-1.8 0.8-3.9 1.2-6 1.6-2.2 0.5-4.4 0.9-6.6 1.8h-0.1c-2.2 1-4.2 2.4-6.1 3.7-2.2 1.5-4.1 3-6.1 3.5-2 0.7-4.2 0.2-5.8-1-1.6-1.2-2.5-3.3-2.3-5.3 0.6-8.3 5-14.8 12-17.9h0.1c8.1-3.6 16.1-2.5 22.6 3.1 1.6 1.4 2.4 3.4 2 5.6-0.3 2.2-1.6 3.9-3.5 4.8-0.1 0.1-0.2 0.1-0.2 0.1z m-14 0.7c2.6-1.1 5.1-1.6 7.4-2 2-0.3 4-0.8 5.5-1.5 1-0.5 1.7-1.4 1.8-2.5 0.1-1-0.2-2-1-2.8-3.9-3.4-10.4-6.6-19.3-2.6h-0.1c-8.4 3.9-10 12-10.2 15.4-0.1 1 0.3 2 1.1 2.6 0.8 0.7 1.9 0.9 3 0.6 1.6-0.5 3.4-1.8 5.2-3.2 2-1.3 4.1-2.9 6.6-4z" fill="#592900" p-id="6230"></path><path d="M641.5 713.8m-38.6 0a38.6 38.6 0 1 0 77.2 0 38.6 38.6 0 1 0-77.2 0Z" fill="#A38B00" p-id="6231"></path><path d="M749.8 665.2m-38.6 0a38.6 38.6 0 1 0 77.2 0 38.6 38.6 0 1 0-77.2 0Z" fill="#A38B00" p-id="6232"></path><path d="M744.7 661.7m-38.6 0a38.6 38.6 0 1 0 77.2 0 38.6 38.6 0 1 0-77.2 0Z" fill="#FFFFFF" p-id="6233"></path><path d="M762 699.5c-0.1 0-0.1 0.1-0.2 0.1-20.9 9.4-45.7 0-55-20.9-4.5-10.1-4.9-21.5-0.9-31.8s11.6-18.5 21.7-23.1c0.1 0 0.1-0.1 0.2-0.1 20.9-9.4 45.7 0 55 21 9.2 20.8-0.1 45.4-20.8 54.8z m-32.1-70.1c-17.7 8.1-25.7 29.1-17.7 46.9 3.9 8.6 10.9 15.3 19.8 18.6 8.9 3.4 18.5 3.1 27.1-0.8 0.1 0 0.1 0 0.2-0.1C777 685.9 785 664.9 777 647.1c-8.1-17.8-29.1-25.9-47-17.9 0 0 0 0.2-0.1 0.2z" fill="#592900" p-id="6234"></path><path d="M642.7 707.4m-38.6 0a38.6 38.6 0 1 0 77.2 0 38.6 38.6 0 1 0-77.2 0Z" fill="#FFFFFF" p-id="6235"></path><path d="M660 745.2c-0.1 0-0.1 0.1-0.2 0.1-10.1 4.5-21.5 4.9-31.8 0.9s-18.6-11.7-23.2-21.9c-9.3-20.9 0-45.4 20.8-55 0.1 0 0.1-0.1 0.2-0.1 20.9-9.4 45.7 0 55 21 4.5 10.1 4.9 21.5 0.9 31.8-4 10.5-11.6 18.7-21.7 23.2z m-31.9-70.2c-17.7 8.1-25.7 29.1-17.7 46.9 3.9 8.6 10.9 15.3 19.8 18.6 8.9 3.4 18.5 3.1 27.1-0.8 0.1 0 0.1 0 0.2-0.1 17.7-8.1 25.7-29.1 17.7-46.9-8.1-17.8-29.1-25.9-47-17.9 0 0.2-0.1 0.2-0.1 0.2z" fill="#592900" p-id="6236"></path><path d="M855.2 731.9s1 9.8-8.1 9.7c-7.3-0.1-18.1 3.4-28.7 8.7-11.1 5.6-20 7.5-21.6 7.7-9.3 1.5 45.1-26 58.4-26.1z" fill="#A38B00" p-id="6237"></path><path d="M803.9 694s-0.2 0.6-0.7 1.7c-0.5 1-1.2 2.6-2 4.7-1.8 4-4.7 9.4-8.4 15.9-1.9 3.2-4 6.7-6.6 10.1-2.5 3.5-5.3 7-8.6 10.4l-1.1 1.1-1.1 1.2c-0.5 0.5-0.7 0.8-0.9 1.2-0.2 0.3-0.6 0.7-0.8 1.1-0.9 1.7-1.4 3.6-1.4 5.6 0 3.9 3 6.8 6.9 7.7 4.1 0.9 8.7 0.1 12.9-1 1.1-0.3 2.3-0.7 3.4-1.1 1.1-0.3 2.2-0.8 3.2-1.2 2-0.8 4.2-1.7 6.1-2.7 4-1.9 7.7-4.2 11.4-6.2s7-4.1 10.2-5.9c3.3-1.8 6.4-3.4 9.2-4.7 1.5-0.6 2.8-1.1 4.1-1.6 1.4-0.5 2.5-0.8 3.6-1.1 2.3-0.6 4.1-1 5.3-1 1.2-0.1 1.9-0.2 1.9-0.2 2.3-0.3 4.3 1.2 4.5 3.5 0.3 2.3-1.2 4.3-3.5 4.5h-0.8s-0.6 0-1.5 0.1c-1 0-2.5 0.1-4.3 0.5-0.9 0.2-2 0.5-3.2 0.8-1.1 0.3-2.4 0.8-3.7 1.1-2.6 1-5.7 2.2-8.9 3.9-6.5 3.2-13.9 7.5-22.3 11.4-2.2 1-4.3 1.9-6.6 2.8-1.1 0.5-2.3 0.9-3.5 1.2-1.1 0.3-2.3 0.7-3.4 1-5 1.4-10.2 2.3-15.7 0.9-2.7-0.7-5.5-2-7.5-4.3-2.2-2.2-3.3-5.2-3.3-8.2-0.1-3 0.7-5.7 1.9-8.1 0.3-0.6 0.7-1.2 1.1-1.8 0.3-0.6 0.8-1.2 1.1-1.6l1.1-1.4 1.2-1.4c3-3.2 5.6-6.7 7.7-10.1 2.3-3.4 4.1-6.8 5.8-9.9 3.3-6.4 5.5-11.9 6.9-15.8 0.7-1.9 1.2-3.5 1.6-4.5 0.3-1 0.5-1.6 0.5-1.6v-0.1c0.7-2.2 3-3.4 5.1-2.7 2.2 0.7 3.4 3 2.7 5.1 0.5 0.4 0.4 0.6 0.4 0.7z" fill="#592900" p-id="6238"></path><path d="M622.7 836.4s6.6 7.3 12.6 0.3c4.8-5.5 14.5-11.1 25.7-15.6 11.6-4.7 18.9-10 20.1-11 7.3-6-49.5 16.4-58.4 26.3z" fill="#A38B00" p-id="6239"></path><path d="M631.7 765.3s0.6 0.2 1.5 0.7c1 0.5 2.5 1.1 4.4 1.8 3.9 1.5 9.4 3.6 16.4 5.3 3.4 0.8 7.3 1.7 11.2 2.3 4 0.7 8.3 1 12.7 0.9h3.5c0.6 0 1.2 0.1 1.9 0.2s1.5 0.2 2 0.3c2.6 0.7 5.2 1.9 7.3 4 2.2 1.9 3.6 4.9 3.9 7.8 0.2 3-0.5 5.9-1.8 8.4-2.7 5-6.8 8.3-11.1 11.1-1 0.6-2 1.2-3.1 1.8s-2.2 1.1-3.3 1.7c-2.2 1.1-4.3 2.2-6.5 3.1-8.5 3.7-16.7 6.4-23.3 9.1-3.4 1.2-6.2 2.7-8.7 4-1.2 0.7-2.4 1.4-3.4 1.9-1 0.7-1.9 1.2-2.6 1.8-1.5 1.2-2.6 2.2-3.3 3-0.7 0.7-1 1.1-1 1.1l-0.2 0.3c-1.6 1.6-4.1 1.6-5.8 0.1-1.6-1.6-1.6-4.1-0.1-5.8l0.2-0.2s0.6-0.5 1.5-1.2c0.9-0.9 2.5-1.9 4.4-3.3 1-0.7 2-1.2 3.3-1.9 1.2-0.7 2.5-1.2 4-1.9 2.8-1.2 6.1-2.5 9.5-3.7 3.5-1.2 7.3-2.4 11.2-3.7 4-1.2 8.1-2.6 12.3-4.3 2-0.8 4.1-1.8 6.1-2.7 1-0.6 1.9-1 3-1.6 1-0.6 2-1.2 3.1-1.8 3.6-2.4 7.4-5.3 9.4-9 1.9-3.6 1.8-7.8-1.1-10.3-1.4-1.2-3.2-2.2-5.1-2.7-0.5-0.1-0.9-0.1-1.4-0.2-0.5-0.1-0.9-0.1-1.5-0.1h-3.3c-4.8 0.2-9.3-0.1-13.5-0.6-4.3-0.5-8.3-1.1-11.9-1.8-7.3-1.6-13.3-3.1-17.5-4.4-2-0.7-3.7-1.1-4.9-1.5-1.1-0.3-1.7-0.6-1.7-0.6-2.2-0.7-3.3-3.1-2.5-5.1 0.7-2.2 3.1-3.3 5.1-2.5 0.4 0.1 0.5 0.1 0.7 0.2z" fill="#592900" p-id="6240"></path><path d="M624 724.1c-0.3 0-0.8 0-1.1-0.2-1.9-0.7-3-2.6-2.3-4.5 0.2-0.6 4.7-14 17.1-20 7.7-3.7 16.7-3.7 26.6 0 1.9 0.7 2.8 2.8 2.2 4.7-0.7 1.9-2.8 2.8-4.7 2.2-7.9-3-15-3.1-20.8-0.2-9.7 4.7-13.4 15.7-13.4 15.8-0.7 1.1-2.2 2.2-3.6 2.2z" fill="#663913" p-id="6241"></path><path d="M725.8 677.6c-0.3 0-0.8 0-1.1-0.2-1.9-0.7-3-2.6-2.3-4.5 0.2-0.6 4.7-14 17.1-20 7.7-3.7 16.7-3.7 26.6 0 1.9 0.7 2.8 2.8 2.2 4.7-0.7 1.9-2.8 2.8-4.7 2.2-7.9-3-15-3.1-20.8-0.2-9.7 4.7-13.4 15.7-13.4 15.8-0.6 1.3-2.1 2.2-3.6 2.2z" fill="#663913" p-id="6242"></path><path d="M760.8 854.1H263c-27.4 0-52.6-11.1-69.2-30.7-16.4-19.2-23.2-43.9-19.1-69.8l54.1-344.6c5.8-37.1 45.5-66.3 90.3-66.3H705c44.9 0 84.5 29.1 90.3 66.3l54.1 344.6c4.1 25.9-2.7 50.6-19.1 69.8-16.9 19.6-42.1 30.7-69.5 30.7zM318.9 371.8c-29.9 0-58.1 19.2-61.7 41.8l-54 344.5c-2.7 17.4 1.7 34 12.5 46.6C227 817.9 243.8 825.1 263 825.1h497.9c19.1 0 35.9-7.3 47.1-20.4 10.8-12.6 15.2-29.2 12.5-46.6l-54.1-344.6c-3.5-22.7-31.8-41.8-61.7-41.8H318.9z" fill="#592900" p-id="6243"></path><path d="M285.6 574.8m-10.2 0a10.2 10.2 0 1 0 20.4 0 10.2 10.2 0 1 0-20.4 0Z" fill="#F04726" p-id="6244"></path><path d="M322.3 574.8m-10.2 0a10.2 10.2 0 1 0 20.4 0 10.2 10.2 0 1 0-20.4 0Z" fill="#F39800" p-id="6245"></path><path d="M359.1 574.8m-10.2 0a10.2 10.2 0 1 0 20.4 0 10.2 10.2 0 1 0-20.4 0Z" fill="#F04726" p-id="6246"></path><path d="M275.3 598.5h231v8.2h-231z" fill="#592900" p-id="6247"></path><path d="M275.3 617.1h231v8.2h-231z" fill="#592900" p-id="6248"></path><path d="M275.3 635.7h121.1v8.2H275.3z" fill="#592900" p-id="6249"></path><path d="M350.4 443.5l-28.4 7.4-2.3-8.7c-1-4.1-2-6.6-3.1-7.5-1-0.9-2.4-1.1-4.1-0.7-1.8 0.5-3.1 1.6-3.6 3.3-0.6 1.7-0.5 4.1 0.3 7.2 1 4 2.3 6.7 3.9 8.4 1.5 1.7 5 3.4 10.4 5 15.7 4.5 25.9 9 30.8 13.2 4.9 4.3 8.7 12.2 11.8 23.6 2.2 8.4 2.8 14.8 1.8 19.2-0.9 4.4-3.9 8.7-8.7 12.9-4.9 4.1-11.1 7.2-18.5 9.1-8.2 2.2-15.6 2.4-22.1 0.8-6.6-1.6-11.4-4.5-14.4-8.9-3.1-4.3-5.7-10.9-7.9-19.6l-2-7.7 28.4-7.4 3.7 14.3c1.1 4.4 2.3 7.2 3.4 8.2 1.1 1 2.7 1.4 4.8 0.8 2-0.6 3.3-1.7 3.9-3.5s0.5-4.3-0.3-7.5c-1.8-6.9-3.9-11.1-6.4-12.8-2.5-1.6-8.2-4-17-6.9-8.9-3.1-14.9-5.5-17.9-7-3.1-1.6-5.9-4.2-8.5-7.8-2.6-3.6-4.8-8.5-6.4-14.8-2.3-9-2.8-15.9-1.7-20.6 1.2-4.8 4.1-9 8.6-12.6 4.5-3.6 10.4-6.5 17.6-8.3 7.9-2 15-2.5 21.2-1.4 6.2 1.1 10.8 3.4 13.6 6.8 2.8 3.4 5.5 9.8 7.8 19.1l1.3 4.4z" fill="#F04726" p-id="6250"></path></svg>